# xmcd
#
# Track frame offsets:
#	150
#	17387
#	23792
#	37630
#	49552
#	62512
#	76364
#	83751
#	94210
#	106473
#
# Disc length: 1560 seconds
#
# Revision: 0
# Processed by: cddbd v1.5.2PL0 Copyright (c) Steve Scherf et al.
# Submitted via: dBpowerAMP V4.0
#
DISCID=6306160a
DTITLE=Roger Miller - River In The Rain
DYEAR=1986
DGENRE=Country
TTITLE0=River In The Rain
TTITLE1=Hand For The Hog 
TTITLE2=Leavin's Not The Only Way To Go
TTITLE3=Guv'ment
TTITLE4=You Oughta Be Here With Me
TTITLE5=Some Hearts Get All The Breaks
TTITLE6=Arkansas
TTITLE7=Indian Giver
TTITLE8=Days Of Our Wives
TTITLE9=Muddy Water
EXTD=
EXTT0=
EXTT1=
EXTT2=
EXTT3=
EXTT4=
EXTT5=
EXTT6=
EXTT7=
EXTT8=
EXTT9=
PLAYORDER=
